<?xml version="1.0" encoding="UTF-8"?>
<svg id="Layer_2" data-name="Layer 2" xmlns="http://www.w3.org/2000/svg" viewBox="0 0 308.15 308.15">
  <defs>
    <style>
      .cls-1 {
        fill: #231f20;
      }

      .cls-1, .cls-2 {
        fill-rule: evenodd;
      }

      .cls-2 {
        fill: #fff;
      }
    </style>
  </defs>
  <g id="icons">
    <g>
      <path class="cls-1" d="m308.15,154.02c0,85.16-68.98,154.13-154.02,154.13S0,239.17,0,154.02C.12,68.98,68.98,0,154.13,0s154.02,68.98,154.02,154.02h0Z"/>
      <path class="cls-2" d="m130.16,130.04h28.58v13.58c6.14-8.86,16.06-14.65,27.64-14.65h7.8c18.31,0,32.95,15.12,32.95,32.95v65.55h-28.58v-52.68c-.35-11.1-7.91-19.72-19.02-19.72h0c-11.1,0-20.43,8.62-20.79,19.72h0v52.68h-28.58v-97.44Zm-31.89-49.37c9.68,0,17.48,7.91,17.48,17.6s-7.8,17.48-17.48,17.48-17.24-7.91-17.24-17.48,7.56-17.6,17.24-17.6h0Zm-14.41,49.37h29.06v97.44h-29.06v-97.44Z"/>
    </g>
  </g>
</svg>