<?xml version="1.0" encoding="UTF-8"?>
<svg id="Layer_2" data-name="Layer 2" xmlns="http://www.w3.org/2000/svg" viewBox="0 0 308.15 308.15">
  <defs>
    <style>
      .cls-1 {
        fill: #fff;
      }

      .cls-2 {
        fill: #231f20;
        fill-rule: evenodd;
      }
    </style>
  </defs>
  <g id="icons">
    <g>
      <path class="cls-1" d="m308.15,154.08c0,85.08-68.98,154.07-154.07,154.07S0,239.16,0,154.08,68.98,0,154.08,0s154.07,68.98,154.07,154.08Z"/>
      <path class="cls-2" d="m130.16,130.1h28.58v13.58c6.14-8.98,16.18-14.65,27.64-14.65h7.8c18.31,0,32.95,15,32.95,32.95v65.43h-28.58v-52.56c-.35-11.1-7.91-19.72-19.02-19.72h0c-11.1,0-20.43,8.62-20.79,19.72h0v52.56h-28.58v-97.32Zm-31.89-49.37c9.68,0,17.48,7.8,17.48,17.48s-7.8,17.6-17.48,17.6-17.24-7.91-17.24-17.6,7.56-17.48,17.24-17.48h0Zm-14.29,49.37h28.94v97.32h-28.94v-97.32Z"/>
    </g>
  </g>
</svg>