<?xml version="1.0" encoding="UTF-8"?>
<svg id="Layer_2" data-name="Layer 2" xmlns="http://www.w3.org/2000/svg" viewBox="0 0 308.15 308.15">
  <defs>
    <style>
      .cls-1 {
        fill: #fff;
      }

      .cls-2 {
        fill: #231f20;
      }
    </style>
  </defs>
  <g id="icons">
    <g>
      <path class="cls-1" d="m308.15,154.99c-.51,85.08-69.9,153.66-154.99,153.15C68.06,307.64-.5,238.24,0,153.16.51,68.07,69.9-.5,155,0c85.09.51,153.66,69.9,153.15,154.99Z"/>
      <path class="cls-2" d="m135.76,142.72s17.97-1.34,17.97-22.41-14.7-31.38-33.33-31.38h-61.3v117.81h61.3s37.41,1.19,37.41-34.78c0,0,1.64-29.24-22.05-29.24Zm-49.65-32.85h34.29s8.33,0,8.33,12.26-4.9,14.02-10.45,14.04h-32.17v-26.29Zm32.71,75.93h-32.71v-31.48h34.29s12.42-.16,12.42,16.18c0,13.63-9.09,15.16-14,15.3Z"/>
      <rect class="cls-2" x="199.71" y="84.12" width="14.5" height="48.62" transform="translate(97.3 314.75) rotate(-89.66)"/>
      <path class="cls-2" d="m207.9,124.22c-45.31-.27-45.52,44.99-45.52,44.99,0,0-3.38,45,44.99,45.29,0,0,40.3,2.56,40.5-31.08l-20.73-.12s.61,12.67-18.97,12.56c0,0-20.74,1.26-20.61-20.62l61.05.36s6.98-51.1-40.71-51.38Zm-20.48,35.3s2.64-18.15,20.84-18.04c18.2.11,17.86,18.27,17.86,18.27l-38.7-.23Z"/>
    </g>
  </g>
</svg>