<?xml version="1.0" encoding="UTF-8"?>
<svg id="Layer_2" data-name="Layer 2" xmlns="http://www.w3.org/2000/svg" viewBox="0 0 308.15 308.15">
  <defs>
    <style>
      .cls-1 {
        fill: #fff;
      }

      .cls-2 {
        fill: #231f20;
      }
    </style>
  </defs>
  <g id="icons">
    <g>
      <path class="cls-2" d="m308.15,154.08c0,85.08-68.98,154.07-154.07,154.07S0,239.16,0,154.08,68.98,0,154.08,0s154.07,68.98,154.07,154.08Z"/>
      <path class="cls-1" d="m135.76,147.72s17.97-1.34,17.97-22.41-14.7-31.38-33.33-31.38h-61.3v117.81h61.3s37.41,1.19,37.41-34.78c0,0,1.64-29.24-22.05-29.24Zm-49.65-32.85h34.29s8.33,0,8.33,12.26-4.9,14.02-10.45,14.04h-32.17v-26.29Zm32.71,75.93h-32.71v-31.48h34.29s12.42-.16,12.42,16.18c0,13.63-9.09,15.16-14,15.3Z"/>
      <rect class="cls-1" x="182.38" y="100.87" width="48.62" height="14.5"/>
      <path class="cls-1" d="m207.73,123.9c-45.31,0-45.26,45.26-45.26,45.26,0,0-3.11,45.02,45.26,45.02,0,0,40.31,2.32,40.31-31.32h-20.73s.68,12.67-18.89,12.67c0,0-20.74,1.39-20.74-20.49h61.05s6.68-51.14-41.01-51.14Zm-20.27,35.42s2.53-18.17,20.73-18.17,17.97,18.17,17.97,18.17h-38.7Z"/>
    </g>
  </g>
</svg>