<?xml version="1.0" encoding="UTF-8"?>
<svg id="Layer_2" data-name="Layer 2" xmlns="http://www.w3.org/2000/svg" viewBox="0 0 308.03 308.03">
  <defs>
    <style>
      .cls-1 {
        fill: #231f20;
      }

      .cls-1, .cls-2 {
        fill-rule: evenodd;
      }

      .cls-2 {
        fill: #fff;
      }
    </style>
  </defs>
  <g id="icons">
    <g>
      <path class="cls-1" d="m308.03,154.02c0,85.04-68.86,154.02-154.02,154.02S0,239.06,0,154.02,68.98,0,154.02,0s154.02,68.98,154.02,154.02h0Z"/>
      <path class="cls-2" d="m116.57,86.1h75c16.89,0,30.59,13.7,30.59,30.59v74.65c0,16.89-13.7,30.59-30.59,30.59h-75c-16.89,0-30.59-13.7-30.59-30.59v-74.65c0-16.89,13.7-30.59,30.59-30.59h0Zm37.32,38.5h.35c16.06,0,29.41,13.35,29.41,29.41h0c0,16.54-13.35,29.88-29.41,29.88h-.35c-16.18,0-29.53-13.35-29.53-29.88h0c0-16.06,13.35-29.41,29.53-29.41h0Zm0-15.35h.35c24.33,0,44.76,20.43,44.76,44.76h0c0,24.68-20.43,44.76-44.76,44.76h-.35c-24.33,0-44.41-20.08-44.41-44.76h0c0-24.33,20.08-44.76,44.41-44.76h0Zm44.29-8.62h0c5.08,0,9.45,4.37,9.45,9.45h0c0,5.08-4.37,9.45-9.45,9.45h0c-5.43,0-9.45-4.37-9.45-9.45h0c0-5.08,4.02-9.45,9.45-9.45h0Zm-81.97-28.7h75.71c24.33,0,44.41,20.08,44.41,44.41v75.35c0,24.33-20.08,44.41-44.41,44.41h-75.71c-24.33,0-44.41-20.08-44.41-44.41v-75.35c0-24.33,20.08-44.41,44.41-44.41h0Z"/>
    </g>
  </g>
</svg>